<mxfile host="Electron" agent="Mozilla/5.0 (Windows NT 10.0; Win64; x64) AppleWebKit/537.36 (KHTML, like Gecko) draw.io/24.7.8 Chrome/128.0.6613.36 Electron/32.0.1 Safari/537.36" version="24.7.8">
  <diagram name="Page-1" id="A2Kn99ULyQtoZMVXZGnV">
    <mxGraphModel dx="1762" dy="1006" grid="0" gridSize="10" guides="1" tooltips="1" connect="1" arrows="1" fold="1" page="0" pageScale="1" pageWidth="850" pageHeight="1100" math="0" shadow="0">
      <root>
        <mxCell id="0" />
        <mxCell id="1" parent="0" />
        <mxCell id="QSNl9v5HCUMXxTpH8jXh-171" value="events" style="whiteSpace=wrap;html=1;shape=mxgraph.basic.document;fontFamily=Architects Daughter;fontSource=https%3A%2F%2Ffonts.googleapis.com%2Fcss%3Ffamily%3DArchitects%2BDaughter;fontSize=15;fontColor=default;labelBackgroundColor=default;shadow=0;sketch=1;curveFitting=1;jiggle=2;" vertex="1" parent="1">
          <mxGeometry x="1139" y="363" width="50" height="50" as="geometry" />
        </mxCell>
        <mxCell id="QSNl9v5HCUMXxTpH8jXh-2" value="Developer" style="shape=umlActor;verticalLabelPosition=bottom;verticalAlign=top;html=1;outlineConnect=0;fontFamily=Gloria Hallelujah;fontSource=https%3A%2F%2Ffonts.googleapis.com%2Fcss%3Ffamily%3DGloria%2BHallelujah;sketch=1;curveFitting=1;jiggle=2;fontSize=15;" vertex="1" parent="1">
          <mxGeometry x="125" y="160" width="30" height="60" as="geometry" />
        </mxCell>
        <mxCell id="QSNl9v5HCUMXxTpH8jXh-3" value="IAC&lt;div style=&quot;font-size: 15px;&quot;&gt;Repo&lt;/div&gt;" style="shape=cylinder3;whiteSpace=wrap;html=1;boundedLbl=1;backgroundOutline=1;size=15;sketch=1;jiggle=2;curveFitting=1;strokeColor=#6c8ebf;align=center;verticalAlign=top;fontFamily=Gloria Hallelujah;fontSource=https%3A%2F%2Ffonts.googleapis.com%2Fcss%3Ffamily%3DGloria%2BHallelujah;fontSize=15;fillColor=#dae8fc;" vertex="1" parent="1">
          <mxGeometry x="250" y="320" width="60" height="80" as="geometry" />
        </mxCell>
        <mxCell id="QSNl9v5HCUMXxTpH8jXh-4" value="Application&lt;div style=&quot;font-size: 15px;&quot;&gt;Code Repo&lt;/div&gt;" style="shape=cylinder3;whiteSpace=wrap;html=1;boundedLbl=1;backgroundOutline=1;size=15;sketch=1;jiggle=2;curveFitting=1;strokeColor=#FF3333;align=center;verticalAlign=top;fontFamily=Gloria Hallelujah;fontSource=https%3A%2F%2Ffonts.googleapis.com%2Fcss%3Ffamily%3DGloria%2BHallelujah;fontSize=15;fillColor=#f8cecc;gradientColor=#ea6b66;strokeWidth=3;" vertex="1" parent="1">
          <mxGeometry x="90" y="320" width="100" height="80" as="geometry" />
        </mxCell>
        <mxCell id="QSNl9v5HCUMXxTpH8jXh-5" value="PR/Commit" style="edgeStyle=orthogonalEdgeStyle;curved=1;rounded=0;hachureGap=4;orthogonalLoop=1;jettySize=auto;html=1;strokeColor=#FF8000;strokeWidth=2;align=center;verticalAlign=middle;fontFamily=Architects Daughter;fontSource=https%3A%2F%2Ffonts.googleapis.com%2Fcss%3Ffamily%3DArchitects%2BDaughter;fontSize=15;fontColor=default;labelBackgroundColor=default;endArrow=classic;flowAnimation=1;" edge="1" parent="1" source="QSNl9v5HCUMXxTpH8jXh-6" target="QSNl9v5HCUMXxTpH8jXh-3">
          <mxGeometry relative="1" as="geometry" />
        </mxCell>
        <mxCell id="QSNl9v5HCUMXxTpH8jXh-6" value="Cloud Engineer" style="shape=umlActor;verticalLabelPosition=bottom;verticalAlign=top;html=1;outlineConnect=0;fontFamily=Gloria Hallelujah;fontSource=https%3A%2F%2Ffonts.googleapis.com%2Fcss%3Ffamily%3DGloria%2BHallelujah;sketch=1;curveFitting=1;jiggle=2;fontSize=15;" vertex="1" parent="1">
          <mxGeometry x="265" y="160" width="30" height="60" as="geometry" />
        </mxCell>
        <mxCell id="QSNl9v5HCUMXxTpH8jXh-7" value="CI/CD Tools" style="rounded=1;whiteSpace=wrap;html=1;sketch=1;jiggle=2;curveFitting=1;strokeColor=#6c8ebf;align=center;verticalAlign=bottom;fontFamily=Gloria Hallelujah;fontSource=https%3A%2F%2Ffonts.googleapis.com%2Fcss%3Ffamily%3DGloria%2BHallelujah;fontSize=15;fillColor=#dae8fc;fontStyle=1" vertex="1" parent="1">
          <mxGeometry x="70" y="470" width="260" height="220" as="geometry" />
        </mxCell>
        <mxCell id="QSNl9v5HCUMXxTpH8jXh-8" value="" style="endArrow=classic;html=1;rounded=0;fontFamily=Gloria Hallelujah;fontSource=https%3A%2F%2Ffonts.googleapis.com%2Fcss%3Ffamily%3DGloria%2BHallelujah;fontSize=15;fontColor=default;flowAnimation=1;strokeColor=#7F00FF;" edge="1" parent="1" source="QSNl9v5HCUMXxTpH8jXh-14">
          <mxGeometry width="50" height="50" relative="1" as="geometry">
            <mxPoint x="80" y="573" as="sourcePoint" />
            <mxPoint x="320" y="573" as="targetPoint" />
          </mxGeometry>
        </mxCell>
        <mxCell id="QSNl9v5HCUMXxTpH8jXh-9" value="" style="endArrow=classic;html=1;rounded=0;fontFamily=Gloria Hallelujah;fontSource=https%3A%2F%2Ffonts.googleapis.com%2Fcss%3Ffamily%3DGloria%2BHallelujah;fontSize=15;fontColor=default;flowAnimation=0;strokeColor=#FF0D0D;strokeWidth=4;dashed=1;dashPattern=1 1;shadow=1;sketch=1;curveFitting=1;jiggle=2;shadowColor=#FFCCCC;shadowOpacity=25;shadowOffsetX=2;shadowBlur=10;shadowOffsetY=3;" edge="1" parent="1" source="QSNl9v5HCUMXxTpH8jXh-16" target="QSNl9v5HCUMXxTpH8jXh-10">
          <mxGeometry width="50" height="50" relative="1" as="geometry">
            <mxPoint x="80" y="573" as="sourcePoint" />
            <mxPoint x="320" y="573" as="targetPoint" />
          </mxGeometry>
        </mxCell>
        <mxCell id="QSNl9v5HCUMXxTpH8jXh-10" value="" style="ellipse;whiteSpace=wrap;html=1;aspect=fixed;strokeColor=#FF3333;align=center;verticalAlign=top;fontFamily=Gloria Hallelujah;fontSource=https%3A%2F%2Ffonts.googleapis.com%2Fcss%3Ffamily%3DGloria%2BHallelujah;fontSize=15;fillColor=#f8cecc;gradientColor=#ea6b66;strokeWidth=3;" vertex="1" parent="1">
          <mxGeometry x="176" y="568" width="10" height="10" as="geometry" />
        </mxCell>
        <mxCell id="QSNl9v5HCUMXxTpH8jXh-11" value="" style="endArrow=classic;html=1;rounded=0;fontFamily=Gloria Hallelujah;fontSource=https%3A%2F%2Ffonts.googleapis.com%2Fcss%3Ffamily%3DGloria%2BHallelujah;fontSize=15;fontColor=default;flowAnimation=1;strokeColor=#7F00FF;" edge="1" parent="1" source="QSNl9v5HCUMXxTpH8jXh-10" target="QSNl9v5HCUMXxTpH8jXh-12">
          <mxGeometry width="50" height="50" relative="1" as="geometry">
            <mxPoint x="155" y="573" as="sourcePoint" />
            <mxPoint x="320" y="573" as="targetPoint" />
          </mxGeometry>
        </mxCell>
        <mxCell id="QSNl9v5HCUMXxTpH8jXh-12" value="" style="ellipse;whiteSpace=wrap;html=1;aspect=fixed;strokeColor=default;align=center;verticalAlign=top;fontFamily=Gloria Hallelujah;fontSource=https%3A%2F%2Ffonts.googleapis.com%2Fcss%3Ffamily%3DGloria%2BHallelujah;fontSize=15;fontColor=default;fillColor=default;" vertex="1" parent="1">
          <mxGeometry x="231" y="568" width="10" height="10" as="geometry" />
        </mxCell>
        <mxCell id="QSNl9v5HCUMXxTpH8jXh-13" value="" style="endArrow=classic;html=1;rounded=0;fontFamily=Gloria Hallelujah;fontSource=https%3A%2F%2Ffonts.googleapis.com%2Fcss%3Ffamily%3DGloria%2BHallelujah;fontSize=15;fontColor=default;flowAnimation=0;strokeColor=#FF0D0D;strokeWidth=4;dashed=1;dashPattern=1 1;shadow=1;sketch=1;curveFitting=1;jiggle=2;shadowColor=#FFCCCC;shadowOpacity=25;shadowOffsetX=2;shadowBlur=10;shadowOffsetY=3;" edge="1" parent="1" source="QSNl9v5HCUMXxTpH8jXh-12" target="QSNl9v5HCUMXxTpH8jXh-14">
          <mxGeometry width="50" height="50" relative="1" as="geometry">
            <mxPoint x="200" y="573" as="sourcePoint" />
            <mxPoint x="320" y="573" as="targetPoint" />
          </mxGeometry>
        </mxCell>
        <mxCell id="QSNl9v5HCUMXxTpH8jXh-14" value="" style="ellipse;whiteSpace=wrap;html=1;aspect=fixed;strokeColor=#FF3333;align=center;verticalAlign=top;fontFamily=Gloria Hallelujah;fontSource=https%3A%2F%2Ffonts.googleapis.com%2Fcss%3Ffamily%3DGloria%2BHallelujah;fontSize=15;fillColor=#f8cecc;gradientColor=#ea6b66;strokeWidth=3;" vertex="1" parent="1">
          <mxGeometry x="284" y="568" width="10" height="10" as="geometry" />
        </mxCell>
        <mxCell id="QSNl9v5HCUMXxTpH8jXh-15" value="" style="endArrow=classic;html=1;rounded=0;fontFamily=Gloria Hallelujah;fontSource=https%3A%2F%2Ffonts.googleapis.com%2Fcss%3Ffamily%3DGloria%2BHallelujah;fontSize=15;fontColor=default;flowAnimation=1;strokeColor=#7F00FF;" edge="1" parent="1" target="QSNl9v5HCUMXxTpH8jXh-16">
          <mxGeometry width="50" height="50" relative="1" as="geometry">
            <mxPoint x="80" y="573" as="sourcePoint" />
            <mxPoint x="145" y="573" as="targetPoint" />
          </mxGeometry>
        </mxCell>
        <mxCell id="QSNl9v5HCUMXxTpH8jXh-16" value="" style="ellipse;whiteSpace=wrap;html=1;aspect=fixed;strokeColor=default;align=center;verticalAlign=top;fontFamily=Gloria Hallelujah;fontSource=https%3A%2F%2Ffonts.googleapis.com%2Fcss%3Ffamily%3DGloria%2BHallelujah;fontSize=15;fontColor=default;fillColor=default;" vertex="1" parent="1">
          <mxGeometry x="114" y="568" width="10" height="10" as="geometry" />
        </mxCell>
        <mxCell id="QSNl9v5HCUMXxTpH8jXh-17" value="Git&lt;div style=&quot;font-size: 15px;&quot;&gt;Checkout&lt;/div&gt;" style="text;html=1;align=center;verticalAlign=middle;whiteSpace=wrap;rounded=0;fontFamily=Gloria Hallelujah;fontSource=https%3A%2F%2Ffonts.googleapis.com%2Fcss%3Ffamily%3DGloria%2BHallelujah;fontSize=15;fontColor=default;" vertex="1" parent="1">
          <mxGeometry x="89" y="520" width="60" height="30" as="geometry" />
        </mxCell>
        <mxCell id="QSNl9v5HCUMXxTpH8jXh-18" value="Code&lt;div style=&quot;font-size: 15px;&quot;&gt;Scan&lt;/div&gt;" style="text;html=1;align=center;verticalAlign=middle;whiteSpace=wrap;rounded=0;fontFamily=Gloria Hallelujah;fontSource=https%3A%2F%2Ffonts.googleapis.com%2Fcss%3Ffamily%3DGloria%2BHallelujah;fontSize=15;fontColor=default;" vertex="1" parent="1">
          <mxGeometry x="149" y="520" width="60" height="30" as="geometry" />
        </mxCell>
        <mxCell id="QSNl9v5HCUMXxTpH8jXh-19" value="image&lt;div style=&quot;font-size: 15px;&quot;&gt;Scan&lt;/div&gt;" style="text;html=1;align=center;verticalAlign=middle;whiteSpace=wrap;rounded=0;fontFamily=Gloria Hallelujah;fontSource=https%3A%2F%2Ffonts.googleapis.com%2Fcss%3Ffamily%3DGloria%2BHallelujah;fontSize=15;fontColor=default;" vertex="1" parent="1">
          <mxGeometry x="259" y="520" width="60" height="30" as="geometry" />
        </mxCell>
        <mxCell id="QSNl9v5HCUMXxTpH8jXh-20" value="Test&lt;div style=&quot;font-size: 15px;&quot;&gt;&amp;amp;&lt;/div&gt;&lt;div style=&quot;font-size: 15px;&quot;&gt;Build&lt;/div&gt;" style="text;html=1;align=center;verticalAlign=middle;whiteSpace=wrap;rounded=0;fontFamily=Gloria Hallelujah;fontSource=https%3A%2F%2Ffonts.googleapis.com%2Fcss%3Ffamily%3DGloria%2BHallelujah;fontSize=15;fontColor=default;" vertex="1" parent="1">
          <mxGeometry x="205" y="520" width="60" height="30" as="geometry" />
        </mxCell>
        <mxCell id="QSNl9v5HCUMXxTpH8jXh-21" value="Public Cloud" style="rounded=0;whiteSpace=wrap;html=1;sketch=1;jiggle=2;curveFitting=1;strokeColor=#6c8ebf;align=center;verticalAlign=bottom;fontFamily=Gloria Hallelujah;fontSource=https%3A%2F%2Ffonts.googleapis.com%2Fcss%3Ffamily%3DGloria%2BHallelujah;fontSize=18;fillColor=#dae8fc;fontStyle=1" vertex="1" parent="1">
          <mxGeometry x="380" y="130" width="730" height="560" as="geometry" />
        </mxCell>
        <mxCell id="QSNl9v5HCUMXxTpH8jXh-22" value="Non-VPC Workloads (PaaS)" style="rounded=0;whiteSpace=wrap;html=1;sketch=1;jiggle=2;curveFitting=1;strokeColor=default;align=center;verticalAlign=top;fontFamily=Gloria Hallelujah;fontSource=https%3A%2F%2Ffonts.googleapis.com%2Fcss%3Ffamily%3DGloria%2BHallelujah;fontSize=15;fontColor=default;fillColor=default;fontStyle=1" vertex="1" parent="1">
          <mxGeometry x="420" y="150" width="470" height="240" as="geometry" />
        </mxCell>
        <mxCell id="QSNl9v5HCUMXxTpH8jXh-23" value="" style="ellipse;shape=cloud;whiteSpace=wrap;html=1;sketch=1;jiggle=2;curveFitting=1;strokeColor=default;align=center;verticalAlign=top;fontFamily=Gloria Hallelujah;fontSource=https%3A%2F%2Ffonts.googleapis.com%2Fcss%3Ffamily%3DGloria%2BHallelujah;fontSize=15;fontColor=default;fillColor=default;" vertex="1" parent="1">
          <mxGeometry x="1006.07" y="630" width="140" height="100" as="geometry" />
        </mxCell>
        <mxCell id="QSNl9v5HCUMXxTpH8jXh-24" value="" style="shape=image;imageAspect=0;aspect=fixed;verticalLabelPosition=bottom;verticalAlign=top;sketch=1;jiggle=2;curveFitting=1;strokeColor=default;align=center;fontFamily=Gloria Hallelujah;fontSource=https%3A%2F%2Ffonts.googleapis.com%2Fcss%3Ffamily%3DGloria%2BHallelujah;fontSize=15;fontColor=default;fillColor=default;image=https://upload.wikimedia.org/wikipedia/commons/thumb/9/93/Amazon_Web_Services_Logo.svg/1024px-Amazon_Web_Services_Logo.svg.png;" vertex="1" parent="1">
          <mxGeometry x="1042.21" y="659.75" width="67.71" height="40.5" as="geometry" />
        </mxCell>
        <mxCell id="QSNl9v5HCUMXxTpH8jXh-25" value="VPC Workloads (IaaS)" style="rounded=0;whiteSpace=wrap;html=1;sketch=1;jiggle=2;curveFitting=1;strokeColor=default;align=center;verticalAlign=top;fontFamily=Gloria Hallelujah;fontSource=https%3A%2F%2Ffonts.googleapis.com%2Fcss%3Ffamily%3DGloria%2BHallelujah;fontSize=15;fontColor=default;fillColor=default;fontStyle=1" vertex="1" parent="1">
          <mxGeometry x="422.85" y="429" width="467.15" height="230" as="geometry" />
        </mxCell>
        <mxCell id="QSNl9v5HCUMXxTpH8jXh-26" value="" style="sketch=0;points=[[0,0,0],[0.25,0,0],[0.5,0,0],[0.75,0,0],[1,0,0],[0,1,0],[0.25,1,0],[0.5,1,0],[0.75,1,0],[1,1,0],[0,0.25,0],[0,0.5,0],[0,0.75,0],[1,0.25,0],[1,0.5,0],[1,0.75,0]];outlineConnect=0;fontColor=#232F3E;fillColor=#8C4FFF;strokeColor=#ffffff;dashed=0;verticalLabelPosition=bottom;verticalAlign=top;align=center;html=1;fontSize=15;fontStyle=0;aspect=fixed;shape=mxgraph.aws4.resourceIcon;resIcon=mxgraph.aws4.vpc;jiggle=2;curveFitting=1;fontFamily=Gloria Hallelujah;fontSource=https%3A%2F%2Ffonts.googleapis.com%2Fcss%3Ffamily%3DGloria%2BHallelujah;" vertex="1" parent="1">
          <mxGeometry x="422.85" y="429" width="29" height="29" as="geometry" />
        </mxCell>
        <mxCell id="QSNl9v5HCUMXxTpH8jXh-27" value="Subnet" style="outlineConnect=0;gradientColor=none;html=1;whiteSpace=wrap;fontSize=15;fontStyle=0;shape=mxgraph.aws4.group;grIcon=mxgraph.aws4.group_subnet;strokeColor=#879196;fillColor=none;verticalAlign=top;align=left;spacingLeft=30;fontColor=#879196;dashed=0;fontFamily=Gloria Hallelujah;fontSource=https%3A%2F%2Ffonts.googleapis.com%2Fcss%3Ffamily%3DGloria%2BHallelujah;" vertex="1" parent="1">
          <mxGeometry x="440" y="470" width="420" height="170" as="geometry" />
        </mxCell>
        <mxCell id="QSNl9v5HCUMXxTpH8jXh-28" value="" style="rounded=0;whiteSpace=wrap;html=1;sketch=1;jiggle=2;curveFitting=1;strokeColor=#FF3333;align=center;verticalAlign=top;fontFamily=Gloria Hallelujah;fontSource=https%3A%2F%2Ffonts.googleapis.com%2Fcss%3Ffamily%3DGloria%2BHallelujah;fontSize=15;fillColor=#f8cecc;gradientColor=#ea6b66;strokeWidth=3;" vertex="1" parent="1">
          <mxGeometry x="451.85" y="503" width="218.15" height="127" as="geometry" />
        </mxCell>
        <mxCell id="QSNl9v5HCUMXxTpH8jXh-29" value="" style="sketch=0;points=[[0,0,0],[0.25,0,0],[0.5,0,0],[0.75,0,0],[1,0,0],[0,1,0],[0.25,1,0],[0.5,1,0],[0.75,1,0],[1,1,0],[0,0.25,0],[0,0.5,0],[0,0.75,0],[1,0.25,0],[1,0.5,0],[1,0.75,0]];outlineConnect=0;fontColor=#232F3E;fillColor=#ED7100;strokeColor=#ffffff;dashed=0;verticalLabelPosition=bottom;verticalAlign=top;align=center;html=1;fontSize=15;fontStyle=0;aspect=fixed;shape=mxgraph.aws4.resourceIcon;resIcon=mxgraph.aws4.eks;jiggle=2;curveFitting=1;fontFamily=Gloria Hallelujah;fontSource=https%3A%2F%2Ffonts.googleapis.com%2Fcss%3Ffamily%3DGloria%2BHallelujah;" vertex="1" parent="1">
          <mxGeometry x="640" y="503" width="28" height="28" as="geometry" />
        </mxCell>
        <mxCell id="QSNl9v5HCUMXxTpH8jXh-30" value="EC2" style="sketch=0;points=[[0,0,0],[0.25,0,0],[0.5,0,0],[0.75,0,0],[1,0,0],[0,1,0],[0.25,1,0],[0.5,1,0],[0.75,1,0],[1,1,0],[0,0.25,0],[0,0.5,0],[0,0.75,0],[1,0.25,0],[1,0.5,0],[1,0.75,0]];outlineConnect=0;fontColor=#232F3E;fillColor=#ED7100;strokeColor=#ffffff;dashed=0;verticalLabelPosition=bottom;verticalAlign=top;align=center;html=1;fontSize=15;fontStyle=0;aspect=fixed;shape=mxgraph.aws4.resourceIcon;resIcon=mxgraph.aws4.ec2;jiggle=2;curveFitting=1;fontFamily=Gloria Hallelujah;fontSource=https%3A%2F%2Ffonts.googleapis.com%2Fcss%3Ffamily%3DGloria%2BHallelujah;" vertex="1" parent="1">
          <mxGeometry x="706" y="556.5" width="54" height="54" as="geometry" />
        </mxCell>
        <mxCell id="QSNl9v5HCUMXxTpH8jXh-31" value="EKS Nodes&lt;div style=&quot;font-size: 15px;&quot;&gt;(EC2)&lt;/div&gt;" style="sketch=0;points=[[0,0,0],[0.25,0,0],[0.5,0,0],[0.75,0,0],[1,0,0],[0,1,0],[0.25,1,0],[0.5,1,0],[0.75,1,0],[1,1,0],[0,0.25,0],[0,0.5,0],[0,0.75,0],[1,0.25,0],[1,0.5,0],[1,0.75,0]];outlineConnect=0;fontColor=#232F3E;fillColor=#ED7100;strokeColor=#ffffff;dashed=0;verticalLabelPosition=bottom;verticalAlign=top;align=center;html=1;fontSize=15;fontStyle=0;aspect=fixed;shape=mxgraph.aws4.resourceIcon;resIcon=mxgraph.aws4.ec2;jiggle=2;curveFitting=1;fontFamily=Gloria Hallelujah;fontSource=https%3A%2F%2Ffonts.googleapis.com%2Fcss%3Ffamily%3DGloria%2BHallelujah;" vertex="1" parent="1">
          <mxGeometry x="480" y="531" width="54" height="54" as="geometry" />
        </mxCell>
        <mxCell id="QSNl9v5HCUMXxTpH8jXh-32" value="EKS Nodes&lt;div style=&quot;font-size: 15px;&quot;&gt;(EC2)&lt;/div&gt;" style="sketch=0;points=[[0,0,0],[0.25,0,0],[0.5,0,0],[0.75,0,0],[1,0,0],[0,1,0],[0.25,1,0],[0.5,1,0],[0.75,1,0],[1,1,0],[0,0.25,0],[0,0.5,0],[0,0.75,0],[1,0.25,0],[1,0.5,0],[1,0.75,0]];outlineConnect=0;fontColor=#232F3E;fillColor=#ED7100;strokeColor=#ffffff;dashed=0;verticalLabelPosition=bottom;verticalAlign=top;align=center;html=1;fontSize=15;fontStyle=0;aspect=fixed;shape=mxgraph.aws4.resourceIcon;resIcon=mxgraph.aws4.ec2;jiggle=2;curveFitting=1;fontFamily=Gloria Hallelujah;fontSource=https%3A%2F%2Ffonts.googleapis.com%2Fcss%3Ffamily%3DGloria%2BHallelujah;" vertex="1" parent="1">
          <mxGeometry x="560" y="531" width="54" height="54" as="geometry" />
        </mxCell>
        <mxCell id="QSNl9v5HCUMXxTpH8jXh-33" value="EC2" style="sketch=0;points=[[0,0,0],[0.25,0,0],[0.5,0,0],[0.75,0,0],[1,0,0],[0,1,0],[0.25,1,0],[0.5,1,0],[0.75,1,0],[1,1,0],[0,0.25,0],[0,0.5,0],[0,0.75,0],[1,0.25,0],[1,0.5,0],[1,0.75,0]];outlineConnect=0;fontColor=#232F3E;fillColor=#ED7100;strokeColor=#ffffff;dashed=0;verticalLabelPosition=bottom;verticalAlign=top;align=center;html=1;fontSize=15;fontStyle=0;aspect=fixed;shape=mxgraph.aws4.resourceIcon;resIcon=mxgraph.aws4.ec2;jiggle=2;curveFitting=1;fontFamily=Gloria Hallelujah;fontSource=https%3A%2F%2Ffonts.googleapis.com%2Fcss%3Ffamily%3DGloria%2BHallelujah;" vertex="1" parent="1">
          <mxGeometry x="786" y="557.5" width="54" height="54" as="geometry" />
        </mxCell>
        <mxCell id="QSNl9v5HCUMXxTpH8jXh-34" value="Generic&lt;div style=&quot;font-size: 15px;&quot;&gt;VM&lt;/div&gt;" style="text;html=1;align=center;verticalAlign=middle;whiteSpace=wrap;rounded=0;fontFamily=Gloria Hallelujah;fontSource=https%3A%2F%2Ffonts.googleapis.com%2Fcss%3Ffamily%3DGloria%2BHallelujah;fontSize=15;fontColor=default;" vertex="1" parent="1">
          <mxGeometry x="703" y="509" width="60" height="30" as="geometry" />
        </mxCell>
        <mxCell id="Ve2g21J112VVVvBCDbT_-1" style="edgeStyle=orthogonalEdgeStyle;shape=connector;curved=1;rounded=0;hachureGap=4;orthogonalLoop=1;jettySize=auto;html=1;exitX=0.5;exitY=1;exitDx=0;exitDy=0;exitPerimeter=0;entryX=0.5;entryY=0;entryDx=0;entryDy=0;dashed=1;dashPattern=1 1;strokeColor=#FF0D0D;strokeWidth=4;align=center;verticalAlign=middle;fontFamily=Architects Daughter;fontSource=https%3A%2F%2Ffonts.googleapis.com%2Fcss%3Ffamily%3DArchitects%2BDaughter;fontSize=15;fontColor=default;labelBackgroundColor=default;endArrow=classic;flowAnimation=0;shadow=1;sketch=1;curveFitting=1;jiggle=2;shadowColor=#FFCCCC;shadowOpacity=25;shadowOffsetX=2;shadowBlur=10;shadowOffsetY=3;" edge="1" parent="1" source="QSNl9v5HCUMXxTpH8jXh-35" target="QSNl9v5HCUMXxTpH8jXh-28">
          <mxGeometry relative="1" as="geometry" />
        </mxCell>
        <mxCell id="QSNl9v5HCUMXxTpH8jXh-35" value="Image&lt;div style=&quot;font-size: 15px;&quot;&gt;Registry&lt;/div&gt;" style="shape=cylinder3;whiteSpace=wrap;html=1;boundedLbl=1;backgroundOutline=1;size=15;sketch=1;jiggle=2;curveFitting=1;strokeColor=#FF3333;align=center;verticalAlign=top;fontFamily=Gloria Hallelujah;fontSource=https%3A%2F%2Ffonts.googleapis.com%2Fcss%3Ffamily%3DGloria%2BHallelujah;fontSize=15;fillColor=#f8cecc;gradientColor=#ea6b66;strokeWidth=3;" vertex="1" parent="1">
          <mxGeometry x="459" y="288" width="100" height="80" as="geometry" />
        </mxCell>
        <mxCell id="QSNl9v5HCUMXxTpH8jXh-36" value="ECR" style="sketch=0;points=[[0,0,0],[0.25,0,0],[0.5,0,0],[0.75,0,0],[1,0,0],[0,1,0],[0.25,1,0],[0.5,1,0],[0.75,1,0],[1,1,0],[0,0.25,0],[0,0.5,0],[0,0.75,0],[1,0.25,0],[1,0.5,0],[1,0.75,0]];outlineConnect=0;fontColor=#232F3E;fillColor=#ED7100;strokeColor=#ffffff;dashed=0;verticalLabelPosition=bottom;verticalAlign=top;align=center;html=1;fontSize=15;fontStyle=0;aspect=fixed;shape=mxgraph.aws4.resourceIcon;resIcon=mxgraph.aws4.ecr;jiggle=2;curveFitting=1;fontFamily=Gloria Hallelujah;fontSource=https%3A%2F%2Ffonts.googleapis.com%2Fcss%3Ffamily%3DGloria%2BHallelujah;" vertex="1" parent="1">
          <mxGeometry x="430" y="311" width="48" height="48" as="geometry" />
        </mxCell>
        <mxCell id="QSNl9v5HCUMXxTpH8jXh-37" value="DB" style="shape=cylinder3;whiteSpace=wrap;html=1;boundedLbl=1;backgroundOutline=1;size=15;sketch=1;jiggle=2;curveFitting=1;strokeColor=default;align=center;verticalAlign=middle;fontFamily=Gloria Hallelujah;fontSource=https%3A%2F%2Ffonts.googleapis.com%2Fcss%3Ffamily%3DGloria%2BHallelujah;fontSize=15;fontColor=default;fillColor=default;" vertex="1" parent="1">
          <mxGeometry x="630.4300000000001" y="290" width="60" height="80" as="geometry" />
        </mxCell>
        <mxCell id="QSNl9v5HCUMXxTpH8jXh-38" value="RDS" style="sketch=0;points=[[0,0,0],[0.25,0,0],[0.5,0,0],[0.75,0,0],[1,0,0],[0,1,0],[0.25,1,0],[0.5,1,0],[0.75,1,0],[1,1,0],[0,0.25,0],[0,0.5,0],[0,0.75,0],[1,0.25,0],[1,0.5,0],[1,0.75,0]];outlineConnect=0;fontColor=#232F3E;fillColor=#C925D1;strokeColor=#ffffff;dashed=0;verticalLabelPosition=bottom;verticalAlign=top;align=center;html=1;fontSize=15;fontStyle=0;aspect=fixed;shape=mxgraph.aws4.resourceIcon;resIcon=mxgraph.aws4.rds;jiggle=2;curveFitting=1;fontFamily=Gloria Hallelujah;fontSource=https%3A%2F%2Ffonts.googleapis.com%2Fcss%3Ffamily%3DGloria%2BHallelujah;direction=east;" vertex="1" parent="1">
          <mxGeometry x="590" y="310" width="48" height="48" as="geometry" />
        </mxCell>
        <mxCell id="QSNl9v5HCUMXxTpH8jXh-39" value="Large Lang&lt;div style=&quot;font-size: 15px;&quot;&gt;Model (LLM)&lt;/div&gt;" style="rounded=1;whiteSpace=wrap;html=1;sketch=1;jiggle=2;curveFitting=1;strokeColor=default;align=center;verticalAlign=middle;fontFamily=Gloria Hallelujah;fontSource=https%3A%2F%2Ffonts.googleapis.com%2Fcss%3Ffamily%3DGloria%2BHallelujah;fontSize=15;fontColor=default;fillColor=default;" vertex="1" parent="1">
          <mxGeometry x="757" y="293" width="103" height="60" as="geometry" />
        </mxCell>
        <mxCell id="QSNl9v5HCUMXxTpH8jXh-40" value="Cloud Storage" style="shape=cylinder3;whiteSpace=wrap;html=1;boundedLbl=1;backgroundOutline=1;size=15;sketch=1;jiggle=2;curveFitting=1;strokeColor=default;align=center;verticalAlign=top;fontFamily=Gloria Hallelujah;fontSource=https%3A%2F%2Ffonts.googleapis.com%2Fcss%3Ffamily%3DGloria%2BHallelujah;fontSize=15;fontColor=default;fillColor=default;" vertex="1" parent="1">
          <mxGeometry x="469" y="192" width="80" height="80" as="geometry" />
        </mxCell>
        <mxCell id="QSNl9v5HCUMXxTpH8jXh-41" value="S3" style="sketch=0;points=[[0,0,0],[0.25,0,0],[0.5,0,0],[0.75,0,0],[1,0,0],[0,1,0],[0.25,1,0],[0.5,1,0],[0.75,1,0],[1,1,0],[0,0.25,0],[0,0.5,0],[0,0.75,0],[1,0.25,0],[1,0.5,0],[1,0.75,0]];outlineConnect=0;fontColor=#232F3E;fillColor=#7AA116;strokeColor=#ffffff;dashed=0;verticalLabelPosition=bottom;verticalAlign=top;align=center;html=1;fontSize=15;fontStyle=0;aspect=fixed;shape=mxgraph.aws4.resourceIcon;resIcon=mxgraph.aws4.s3;jiggle=2;curveFitting=1;fontFamily=Gloria Hallelujah;fontSource=https%3A%2F%2Ffonts.googleapis.com%2Fcss%3Ffamily%3DGloria%2BHallelujah;" vertex="1" parent="1">
          <mxGeometry x="428" y="182" width="50" height="50" as="geometry" />
        </mxCell>
        <mxCell id="QSNl9v5HCUMXxTpH8jXh-42" value="Large Lang&lt;div style=&quot;font-size: 15px;&quot;&gt;Model (LLM)&lt;/div&gt;" style="rounded=1;whiteSpace=wrap;html=1;sketch=1;jiggle=2;curveFitting=1;strokeColor=default;align=center;verticalAlign=middle;fontFamily=Gloria Hallelujah;fontSource=https%3A%2F%2Ffonts.googleapis.com%2Fcss%3Ffamily%3DGloria%2BHallelujah;fontSize=15;fontColor=default;fillColor=default;" vertex="1" parent="1">
          <mxGeometry x="767" y="303" width="103" height="60" as="geometry" />
        </mxCell>
        <mxCell id="QSNl9v5HCUMXxTpH8jXh-43" value="Prisma CLoud&lt;div style=&quot;font-size: 15px;&quot;&gt;Scanner&lt;/div&gt;" style="text;html=1;align=center;verticalAlign=middle;whiteSpace=wrap;rounded=0;fontFamily=Gloria Hallelujah;fontSource=https%3A%2F%2Ffonts.googleapis.com%2Fcss%3Ffamily%3DGloria%2BHallelujah;fontSize=15;fontColor=default;" vertex="1" parent="1">
          <mxGeometry x="783" y="509" width="60" height="30" as="geometry" />
        </mxCell>
        <mxCell id="QSNl9v5HCUMXxTpH8jXh-44" value="Fire&lt;div style=&quot;font-size: 15px;&quot;&gt;Shares&lt;/div&gt;" style="shape=document;whiteSpace=wrap;html=1;boundedLbl=1;sketch=1;jiggle=2;curveFitting=1;strokeColor=default;align=center;verticalAlign=top;fontFamily=Gloria Hallelujah;fontSource=https%3A%2F%2Ffonts.googleapis.com%2Fcss%3Ffamily%3DGloria%2BHallelujah;fontSize=15;fontColor=default;fillColor=default;" vertex="1" parent="1">
          <mxGeometry x="620.65" y="202" width="79.57" height="70" as="geometry" />
        </mxCell>
        <mxCell id="QSNl9v5HCUMXxTpH8jXh-45" value="EFS" style="sketch=0;points=[[0,0,0],[0.25,0,0],[0.5,0,0],[0.75,0,0],[1,0,0],[0,1,0],[0.25,1,0],[0.5,1,0],[0.75,1,0],[1,1,0],[0,0.25,0],[0,0.5,0],[0,0.75,0],[1,0.25,0],[1,0.5,0],[1,0.75,0]];outlineConnect=0;fontColor=#232F3E;fillColor=#7AA116;strokeColor=#ffffff;dashed=0;verticalLabelPosition=bottom;verticalAlign=top;align=center;html=1;fontSize=15;fontStyle=0;aspect=fixed;shape=mxgraph.aws4.resourceIcon;resIcon=mxgraph.aws4.efs_standard;jiggle=2;curveFitting=1;fontFamily=Gloria Hallelujah;fontSource=https%3A%2F%2Ffonts.googleapis.com%2Fcss%3Ffamily%3DGloria%2BHallelujah;" vertex="1" parent="1">
          <mxGeometry x="582.43" y="183" width="48" height="48" as="geometry" />
        </mxCell>
        <mxCell id="QSNl9v5HCUMXxTpH8jXh-46" value="Fargate" style="sketch=0;points=[[0,0,0],[0.25,0,0],[0.5,0,0],[0.75,0,0],[1,0,0],[0,1,0],[0.25,1,0],[0.5,1,0],[0.75,1,0],[1,1,0],[0,0.25,0],[0,0.5,0],[0,0.75,0],[1,0.25,0],[1,0.5,0],[1,0.75,0]];outlineConnect=0;fontColor=#232F3E;fillColor=#ED7100;strokeColor=#ffffff;dashed=0;verticalLabelPosition=bottom;verticalAlign=top;align=center;html=1;fontSize=15;fontStyle=0;aspect=fixed;shape=mxgraph.aws4.resourceIcon;resIcon=mxgraph.aws4.fargate;jiggle=2;curveFitting=1;fontFamily=Gloria Hallelujah;fontSource=https%3A%2F%2Ffonts.googleapis.com%2Fcss%3Ffamily%3DGloria%2BHallelujah;" vertex="1" parent="1">
          <mxGeometry x="740" y="192" width="47.5" height="47.5" as="geometry" />
        </mxCell>
        <mxCell id="QSNl9v5HCUMXxTpH8jXh-47" value="Lambda" style="sketch=0;points=[[0,0,0],[0.25,0,0],[0.5,0,0],[0.75,0,0],[1,0,0],[0,1,0],[0.25,1,0],[0.5,1,0],[0.75,1,0],[1,1,0],[0,0.25,0],[0,0.5,0],[0,0.75,0],[1,0.25,0],[1,0.5,0],[1,0.75,0]];outlineConnect=0;fontColor=#232F3E;fillColor=#ED7100;strokeColor=#ffffff;dashed=0;verticalLabelPosition=bottom;verticalAlign=top;align=center;html=1;fontSize=15;fontStyle=0;aspect=fixed;shape=mxgraph.aws4.resourceIcon;resIcon=mxgraph.aws4.lambda;jiggle=2;curveFitting=1;fontFamily=Gloria Hallelujah;fontSource=https%3A%2F%2Ffonts.googleapis.com%2Fcss%3Ffamily%3DGloria%2BHallelujah;" vertex="1" parent="1">
          <mxGeometry x="813" y="192.5" width="47" height="47" as="geometry" />
        </mxCell>
        <mxCell id="QSNl9v5HCUMXxTpH8jXh-48" style="edgeStyle=orthogonalEdgeStyle;rounded=0;hachureGap=4;orthogonalLoop=1;jettySize=auto;html=1;exitX=0.5;exitY=0;exitDx=0;exitDy=0;exitPerimeter=0;entryX=0.5;entryY=1;entryDx=0;entryDy=0;strokeColor=#FF0D0D;strokeWidth=4;align=center;verticalAlign=middle;fontFamily=Architects Daughter;fontSource=https%3A%2F%2Ffonts.googleapis.com%2Fcss%3Ffamily%3DArchitects%2BDaughter;fontSize=15;fontColor=default;labelBackgroundColor=default;endArrow=classic;flowAnimation=0;curved=1;dashed=1;dashPattern=1 1;shadow=1;sketch=1;curveFitting=1;jiggle=2;shadowColor=#FFCCCC;shadowOpacity=25;shadowOffsetX=2;shadowBlur=10;shadowOffsetY=3;" edge="1" parent="1" source="QSNl9v5HCUMXxTpH8jXh-49" target="QSNl9v5HCUMXxTpH8jXh-50">
          <mxGeometry relative="1" as="geometry" />
        </mxCell>
        <mxCell id="QSNl9v5HCUMXxTpH8jXh-49" value="Transit&lt;div style=&quot;font-size: 15px;&quot;&gt;Gateway&lt;/div&gt;" style="sketch=0;points=[[0,0,0],[0.25,0,0],[0.5,0,0],[0.75,0,0],[1,0,0],[0,1,0],[0.25,1,0],[0.5,1,0],[0.75,1,0],[1,1,0],[0,0.25,0],[0,0.5,0],[0,0.75,0],[1,0.25,0],[1,0.5,0],[1,0.75,0]];outlineConnect=0;fontColor=#232F3E;fillColor=#8C4FFF;strokeColor=#ffffff;dashed=0;verticalLabelPosition=bottom;verticalAlign=top;align=center;html=1;fontSize=15;fontStyle=0;aspect=fixed;shape=mxgraph.aws4.resourceIcon;resIcon=mxgraph.aws4.transit_gateway;jiggle=2;curveFitting=1;fontFamily=Gloria Hallelujah;fontSource=https%3A%2F%2Ffonts.googleapis.com%2Fcss%3Ffamily%3DGloria%2BHallelujah;" vertex="1" parent="1">
          <mxGeometry x="940" y="511" width="48" height="48" as="geometry" />
        </mxCell>
        <mxCell id="QSNl9v5HCUMXxTpH8jXh-50" value="Security VPC" style="rounded=0;whiteSpace=wrap;html=1;sketch=1;jiggle=2;curveFitting=1;strokeColor=default;align=center;verticalAlign=top;fontFamily=Gloria Hallelujah;fontSource=https%3A%2F%2Ffonts.googleapis.com%2Fcss%3Ffamily%3DGloria%2BHallelujah;fontSize=15;fontColor=default;fillColor=default;" vertex="1" parent="1">
          <mxGeometry x="930" y="260" width="150" height="155" as="geometry" />
        </mxCell>
        <mxCell id="QSNl9v5HCUMXxTpH8jXh-51" value="Insepection" style="edgeStyle=orthogonalEdgeStyle;curved=1;rounded=0;hachureGap=4;orthogonalLoop=1;jettySize=auto;html=1;entryX=0.75;entryY=1;entryDx=0;entryDy=0;strokeColor=#FF00FF;strokeWidth=2;align=center;verticalAlign=middle;fontFamily=Architects Daughter;fontSource=https%3A%2F%2Ffonts.googleapis.com%2Fcss%3Ffamily%3DArchitects%2BDaughter;fontSize=15;fontColor=default;labelBackgroundColor=default;endArrow=classic;flowAnimation=1;startArrow=classic;startFill=1;" edge="1" parent="1" source="QSNl9v5HCUMXxTpH8jXh-52" target="QSNl9v5HCUMXxTpH8jXh-50">
          <mxGeometry relative="1" as="geometry" />
        </mxCell>
        <mxCell id="QSNl9v5HCUMXxTpH8jXh-52" value="Cloud NGFW&#xa;For AWS" style="shape=image;imageAspect=0;aspect=fixed;verticalLabelPosition=bottom;verticalAlign=top;sketch=1;jiggle=2;curveFitting=1;strokeColor=default;align=center;fontFamily=Gloria Hallelujah;fontSource=https%3A%2F%2Ffonts.googleapis.com%2Fcss%3Ffamily%3DGloria%2BHallelujah;fontSize=15;fontColor=default;fillColor=default;image=https://www.paloaltonetworks.co.uk/content/dam/pan/en_US/includes/igw/cloud-ngfw/assets/images/find-out-more/circle-logo-2.png;" vertex="1" parent="1">
          <mxGeometry x="1006.07" y="494.25" width="73.93" height="73.75" as="geometry" />
        </mxCell>
        <mxCell id="QSNl9v5HCUMXxTpH8jXh-53" value="Subnet" style="outlineConnect=0;html=1;whiteSpace=wrap;fontSize=15;fontStyle=0;shape=mxgraph.aws4.group;grIcon=mxgraph.aws4.group_subnet;strokeColor=#FF3333;fillColor=#f8cecc;verticalAlign=top;align=left;spacingLeft=30;dashed=0;fontFamily=Gloria Hallelujah;fontSource=https%3A%2F%2Ffonts.googleapis.com%2Fcss%3Ffamily%3DGloria%2BHallelujah;gradientColor=#ea6b66;strokeWidth=3;" vertex="1" parent="1">
          <mxGeometry x="950" y="291" width="110.43" height="109" as="geometry" />
        </mxCell>
        <mxCell id="QSNl9v5HCUMXxTpH8jXh-54" value="NGFW Endpoint" style="sketch=0;outlineConnect=0;fontColor=#232F3E;gradientColor=none;fillColor=#DD344C;strokeColor=none;dashed=0;verticalLabelPosition=bottom;verticalAlign=top;align=center;html=1;fontSize=15;fontStyle=0;aspect=fixed;pointerEvents=1;shape=mxgraph.aws4.network_firewall_endpoints;jiggle=2;curveFitting=1;fontFamily=Gloria Hallelujah;fontSource=https%3A%2F%2Ffonts.googleapis.com%2Fcss%3Ffamily%3DGloria%2BHallelujah;" vertex="1" parent="1">
          <mxGeometry x="980.5" y="321" width="49" height="49" as="geometry" />
        </mxCell>
        <mxCell id="QSNl9v5HCUMXxTpH8jXh-66" value="Internet" style="ellipse;shape=cloud;whiteSpace=wrap;html=1;sketch=1;hachureGap=4;jiggle=2;curveFitting=1;fontFamily=Architects Daughter;fontSource=https%3A%2F%2Ffonts.googleapis.com%2Fcss%3Ffamily%3DArchitects%2BDaughter;fontSize=15;fontStyle=1;fillColor=#f8cecc;strokeColor=#FF3333;gradientColor=#ea6b66;strokeWidth=3;" vertex="1" parent="1">
          <mxGeometry x="1268" y="110" width="177" height="118" as="geometry" />
        </mxCell>
        <mxCell id="QSNl9v5HCUMXxTpH8jXh-67" value="Insecure TLS" style="ellipse;shape=cloud;whiteSpace=wrap;html=1;sketch=1;hachureGap=4;jiggle=2;curveFitting=1;fontFamily=Architects Daughter;fontSource=https%3A%2F%2Ffonts.googleapis.com%2Fcss%3Ffamily%3DArchitects%2BDaughter;fontSize=15;fontStyle=1" vertex="1" parent="1">
          <mxGeometry x="1190" y="169.25" width="166.5" height="109" as="geometry" />
        </mxCell>
        <mxCell id="QSNl9v5HCUMXxTpH8jXh-68" value="Unmanaged&lt;div style=&quot;font-size: 15px;&quot;&gt;Domain&lt;/div&gt;" style="ellipse;shape=cloud;whiteSpace=wrap;html=1;sketch=1;hachureGap=4;jiggle=2;curveFitting=1;fontFamily=Architects Daughter;fontSource=https%3A%2F%2Ffonts.googleapis.com%2Fcss%3Ffamily%3DArchitects%2BDaughter;fontSize=15;fontStyle=1" vertex="1" parent="1">
          <mxGeometry x="1318" y="179" width="166.5" height="109" as="geometry" />
        </mxCell>
        <mxCell id="QSNl9v5HCUMXxTpH8jXh-69" value="Shadow Clouds" style="ellipse;shape=cloud;whiteSpace=wrap;html=1;sketch=1;hachureGap=4;jiggle=2;curveFitting=1;fontFamily=Architects Daughter;fontSource=https%3A%2F%2Ffonts.googleapis.com%2Fcss%3Ffamily%3DArchitects%2BDaughter;fontSize=15;fontStyle=1" vertex="1" parent="1">
          <mxGeometry x="1214.5" y="239.5" width="164.97" height="108" as="geometry" />
        </mxCell>
        <mxCell id="QSNl9v5HCUMXxTpH8jXh-70" value="Hacker" style="shape=umlActor;verticalLabelPosition=bottom;verticalAlign=top;html=1;outlineConnect=0;sketch=1;hachureGap=4;jiggle=2;curveFitting=1;fontFamily=Architects Daughter;fontSource=https%3A%2F%2Ffonts.googleapis.com%2Fcss%3Ffamily%3DArchitects%2BDaughter;fontSize=21;fillColor=#e51400;strokeColor=#B20000;fontColor=#FF0D0D;fontStyle=1" vertex="1" parent="1">
          <mxGeometry x="1604.5" y="211.75" width="30" height="60" as="geometry" />
        </mxCell>
        <mxCell id="QSNl9v5HCUMXxTpH8jXh-71" value="Application Users&lt;div style=&quot;font-size: 15px;&quot;&gt;(Public)&lt;/div&gt;" style="shape=umlActor;verticalLabelPosition=bottom;verticalAlign=top;html=1;outlineConnect=0;sketch=1;hachureGap=4;jiggle=2;curveFitting=1;fontFamily=Architects Daughter;fontSource=https%3A%2F%2Ffonts.googleapis.com%2Fcss%3Ffamily%3DArchitects%2BDaughter;fontSize=15;" vertex="1" parent="1">
          <mxGeometry x="1604.5" y="80" width="30" height="60" as="geometry" />
        </mxCell>
        <mxCell id="QSNl9v5HCUMXxTpH8jXh-113" style="edgeStyle=orthogonalEdgeStyle;shape=connector;curved=1;rounded=0;hachureGap=4;orthogonalLoop=1;jettySize=auto;html=1;strokeColor=default;strokeWidth=2;align=center;verticalAlign=middle;fontFamily=Architects Daughter;fontSource=https%3A%2F%2Ffonts.googleapis.com%2Fcss%3Ffamily%3DArchitects%2BDaughter;fontSize=15;fontColor=default;labelBackgroundColor=default;endArrow=classic;flowAnimation=1;" edge="1" parent="1" source="QSNl9v5HCUMXxTpH8jXh-72" target="QSNl9v5HCUMXxTpH8jXh-55">
          <mxGeometry relative="1" as="geometry" />
        </mxCell>
        <mxCell id="QSNl9v5HCUMXxTpH8jXh-72" value="SecOps / Security Engineer / Security Architect" style="shape=umlActor;verticalLabelPosition=bottom;verticalAlign=top;html=1;outlineConnect=0;sketch=1;hachureGap=4;jiggle=2;curveFitting=1;fontFamily=Architects Daughter;fontSource=https%3A%2F%2Ffonts.googleapis.com%2Fcss%3Ffamily%3DArchitects%2BDaughter;fontSize=15;" vertex="1" parent="1">
          <mxGeometry x="1419.4" y="748" width="30" height="60" as="geometry" />
        </mxCell>
        <mxCell id="QSNl9v5HCUMXxTpH8jXh-73" value="PR/Commit" style="edgeStyle=orthogonalEdgeStyle;rounded=0;hachureGap=4;orthogonalLoop=1;jettySize=auto;html=1;entryX=0.5;entryY=0;entryDx=0;entryDy=0;entryPerimeter=0;fontFamily=Architects Daughter;fontSource=https%3A%2F%2Ffonts.googleapis.com%2Fcss%3Ffamily%3DArchitects%2BDaughter;strokeWidth=4;curved=1;flowAnimation=0;strokeColor=#FF0D0D;fontSize=15;dashed=1;dashPattern=1 1;shadow=1;sketch=1;curveFitting=1;jiggle=2;shadowColor=#FFCCCC;shadowOpacity=25;shadowOffsetX=2;shadowBlur=10;shadowOffsetY=3;" edge="1" parent="1" source="QSNl9v5HCUMXxTpH8jXh-2" target="QSNl9v5HCUMXxTpH8jXh-4">
          <mxGeometry relative="1" as="geometry" />
        </mxCell>
        <mxCell id="QSNl9v5HCUMXxTpH8jXh-74" value="Trigger" style="edgeStyle=orthogonalEdgeStyle;curved=1;rounded=0;hachureGap=4;orthogonalLoop=1;jettySize=auto;html=1;exitX=0.5;exitY=1;exitDx=0;exitDy=0;exitPerimeter=0;entryX=0.335;entryY=-0.005;entryDx=0;entryDy=0;entryPerimeter=0;strokeColor=#FF0D0D;strokeWidth=4;align=center;verticalAlign=middle;fontFamily=Architects Daughter;fontSource=https%3A%2F%2Ffonts.googleapis.com%2Fcss%3Ffamily%3DArchitects%2BDaughter;fontSize=15;fontColor=default;labelBackgroundColor=default;endArrow=classic;flowAnimation=0;dashed=1;dashPattern=1 1;shadow=1;sketch=1;curveFitting=1;jiggle=2;shadowColor=#FFCCCC;shadowOpacity=25;shadowOffsetX=2;shadowBlur=10;shadowOffsetY=3;" edge="1" parent="1" source="QSNl9v5HCUMXxTpH8jXh-4" target="QSNl9v5HCUMXxTpH8jXh-7">
          <mxGeometry relative="1" as="geometry" />
        </mxCell>
        <mxCell id="QSNl9v5HCUMXxTpH8jXh-75" value="Trigger" style="edgeStyle=orthogonalEdgeStyle;curved=1;rounded=0;hachureGap=4;orthogonalLoop=1;jettySize=auto;html=1;exitX=0.5;exitY=1;exitDx=0;exitDy=0;exitPerimeter=0;entryX=0.631;entryY=0.009;entryDx=0;entryDy=0;entryPerimeter=0;strokeColor=#FF8000;strokeWidth=2;align=center;verticalAlign=middle;fontFamily=Architects Daughter;fontSource=https%3A%2F%2Ffonts.googleapis.com%2Fcss%3Ffamily%3DArchitects%2BDaughter;fontSize=15;fontColor=default;labelBackgroundColor=default;endArrow=classic;flowAnimation=1;" edge="1" parent="1" source="QSNl9v5HCUMXxTpH8jXh-3" target="QSNl9v5HCUMXxTpH8jXh-7">
          <mxGeometry relative="1" as="geometry">
            <Array as="points">
              <mxPoint x="280" y="430" />
              <mxPoint x="234" y="430" />
            </Array>
          </mxGeometry>
        </mxCell>
        <mxCell id="QSNl9v5HCUMXxTpH8jXh-76" value="Continuous Integration&lt;div style=&quot;font-size: 15px;&quot;&gt;(CI)&lt;/div&gt;" style="edgeStyle=orthogonalEdgeStyle;curved=1;rounded=0;hachureGap=4;orthogonalLoop=1;jettySize=auto;html=1;exitX=1;exitY=0.25;exitDx=0;exitDy=0;entryX=0;entryY=0.5;entryDx=0;entryDy=0;entryPerimeter=0;strokeColor=#FF0D0D;strokeWidth=4;align=center;verticalAlign=middle;fontFamily=Architects Daughter;fontSource=https%3A%2F%2Ffonts.googleapis.com%2Fcss%3Ffamily%3DArchitects%2BDaughter;fontSize=15;fontColor=default;labelBackgroundColor=default;endArrow=classic;flowAnimation=0;dashed=1;dashPattern=1 1;shadow=1;sketch=1;curveFitting=1;jiggle=2;shadowColor=#FFCCCC;shadowOpacity=25;shadowOffsetX=2;shadowBlur=10;shadowOffsetY=3;" edge="1" parent="1" source="QSNl9v5HCUMXxTpH8jXh-7" target="QSNl9v5HCUMXxTpH8jXh-36">
          <mxGeometry x="-0.069" relative="1" as="geometry">
            <Array as="points">
              <mxPoint x="360" y="525" />
              <mxPoint x="360" y="335" />
            </Array>
            <mxPoint as="offset" />
          </mxGeometry>
        </mxCell>
        <mxCell id="QSNl9v5HCUMXxTpH8jXh-77" value="Continuous&lt;div style=&quot;font-size: 15px;&quot;&gt;Deployment/&lt;/div&gt;&lt;div style=&quot;font-size: 15px;&quot;&gt;Delivery&lt;/div&gt;&lt;div style=&quot;font-size: 15px;&quot;&gt;(CD)&lt;/div&gt;" style="edgeStyle=orthogonalEdgeStyle;curved=1;rounded=0;hachureGap=4;orthogonalLoop=1;jettySize=auto;html=1;exitX=1;exitY=0.75;exitDx=0;exitDy=0;strokeColor=#FF0D0D;strokeWidth=4;align=center;verticalAlign=middle;fontFamily=Architects Daughter;fontSource=https%3A%2F%2Ffonts.googleapis.com%2Fcss%3Ffamily%3DArchitects%2BDaughter;fontSize=15;fontColor=default;labelBackgroundColor=default;endArrow=classic;flowAnimation=0;entryX=0;entryY=0.5;entryDx=0;entryDy=0;entryPerimeter=0;dashed=1;dashPattern=1 1;shadow=1;sketch=1;curveFitting=1;jiggle=2;shadowColor=#FFCCCC;shadowOpacity=25;shadowOffsetX=2;shadowBlur=10;shadowOffsetY=3;" edge="1" parent="1" source="QSNl9v5HCUMXxTpH8jXh-7" target="QSNl9v5HCUMXxTpH8jXh-31">
          <mxGeometry x="0.1454" y="25" relative="1" as="geometry">
            <mxPoint as="offset" />
          </mxGeometry>
        </mxCell>
        <mxCell id="QSNl9v5HCUMXxTpH8jXh-78" style="edgeStyle=orthogonalEdgeStyle;rounded=0;hachureGap=4;orthogonalLoop=1;jettySize=auto;html=1;strokeColor=#FF0D0D;strokeWidth=4;align=center;verticalAlign=middle;fontFamily=Architects Daughter;fontSource=https%3A%2F%2Ffonts.googleapis.com%2Fcss%3Ffamily%3DArchitects%2BDaughter;fontSize=15;fontColor=default;labelBackgroundColor=default;endArrow=classic;flowAnimation=0;entryX=0;entryY=0.5;entryDx=0;entryDy=0;entryPerimeter=0;curved=1;dashed=1;dashPattern=1 1;exitX=0.75;exitY=0;exitDx=0;exitDy=0;exitPerimeter=0;shadow=1;sketch=1;curveFitting=1;jiggle=2;shadowColor=#FFCCCC;shadowOpacity=25;shadowOffsetX=2;shadowBlur=10;shadowOffsetY=3;" edge="1" parent="1" source="QSNl9v5HCUMXxTpH8jXh-32" target="QSNl9v5HCUMXxTpH8jXh-49">
          <mxGeometry relative="1" as="geometry">
            <mxPoint x="907" y="571" as="sourcePoint" />
            <mxPoint x="1029" y="503" as="targetPoint" />
            <Array as="points">
              <mxPoint x="600" y="479" />
              <mxPoint x="777" y="479" />
              <mxPoint x="777" y="535" />
            </Array>
          </mxGeometry>
        </mxCell>
        <mxCell id="QSNl9v5HCUMXxTpH8jXh-79" value="Exposure" style="edgeStyle=orthogonalEdgeStyle;curved=1;rounded=0;hachureGap=4;orthogonalLoop=1;jettySize=auto;html=1;exitX=1;exitY=0.5;exitDx=0;exitDy=0;entryX=0.07;entryY=0.4;entryDx=0;entryDy=0;entryPerimeter=0;strokeColor=#FF0D0D;strokeWidth=4;align=center;verticalAlign=middle;fontFamily=Architects Daughter;fontSource=https%3A%2F%2Ffonts.googleapis.com%2Fcss%3Ffamily%3DArchitects%2BDaughter;fontSize=15;fontColor=default;labelBackgroundColor=default;endArrow=classic;flowAnimation=0;dashed=1;dashPattern=1 1;shadow=1;sketch=1;curveFitting=1;jiggle=2;shadowColor=#FFCCCC;shadowOpacity=25;shadowOffsetX=2;shadowBlur=10;shadowOffsetY=3;" edge="1" parent="1" source="QSNl9v5HCUMXxTpH8jXh-50" target="QSNl9v5HCUMXxTpH8jXh-66">
          <mxGeometry relative="1" as="geometry">
            <Array as="points">
              <mxPoint x="1170" y="338" />
              <mxPoint x="1170" y="157" />
            </Array>
          </mxGeometry>
        </mxCell>
        <mxCell id="QSNl9v5HCUMXxTpH8jXh-80" value="ZTNA" style="edgeStyle=orthogonalEdgeStyle;curved=1;rounded=0;hachureGap=4;orthogonalLoop=1;jettySize=auto;html=1;entryX=0.904;entryY=0.316;entryDx=0;entryDy=0;entryPerimeter=0;strokeColor=default;strokeWidth=2;align=center;verticalAlign=middle;fontFamily=Architects Daughter;fontSource=https%3A%2F%2Ffonts.googleapis.com%2Fcss%3Ffamily%3DArchitects%2BDaughter;fontSize=15;fontColor=default;labelBackgroundColor=default;endArrow=classic;flowAnimation=1;" edge="1" parent="1" source="QSNl9v5HCUMXxTpH8jXh-71" target="QSNl9v5HCUMXxTpH8jXh-66">
          <mxGeometry x="-0.3966" y="10" relative="1" as="geometry">
            <mxPoint as="offset" />
          </mxGeometry>
        </mxCell>
        <mxCell id="QSNl9v5HCUMXxTpH8jXh-81" value="Outside-In&lt;div style=&quot;font-size: 15px;&quot;&gt;Connection&lt;/div&gt;" style="edgeStyle=orthogonalEdgeStyle;curved=1;rounded=0;hachureGap=4;orthogonalLoop=1;jettySize=auto;html=1;entryX=0.875;entryY=0.5;entryDx=0;entryDy=0;entryPerimeter=0;strokeColor=#FF0D0D;strokeWidth=4;align=center;verticalAlign=middle;fontFamily=Architects Daughter;fontSource=https%3A%2F%2Ffonts.googleapis.com%2Fcss%3Ffamily%3DArchitects%2BDaughter;fontSize=15;fontColor=default;labelBackgroundColor=default;endArrow=classic;flowAnimation=0;dashed=1;dashPattern=1 1;shadow=1;sketch=1;curveFitting=1;jiggle=2;shadowColor=#FFCCCC;shadowOpacity=25;shadowOffsetX=2;shadowBlur=10;shadowOffsetY=3;" edge="1" parent="1" source="QSNl9v5HCUMXxTpH8jXh-70" target="QSNl9v5HCUMXxTpH8jXh-66">
          <mxGeometry x="0.3151" y="-9" relative="1" as="geometry">
            <mxPoint as="offset" />
          </mxGeometry>
        </mxCell>
        <mxCell id="QSNl9v5HCUMXxTpH8jXh-83" value="&amp;nbsp;SaaS&lt;div style=&quot;font-size: 15px;&quot;&gt;Applications&lt;/div&gt;" style="ellipse;shape=cloud;whiteSpace=wrap;html=1;sketch=1;hachureGap=4;jiggle=2;curveFitting=1;fontFamily=Architects Daughter;fontSource=https%3A%2F%2Ffonts.googleapis.com%2Fcss%3Ffamily%3DArchitects%2BDaughter;fontSize=15;fontStyle=1" vertex="1" parent="1">
          <mxGeometry x="1335.5" y="256.75" width="139" height="91" as="geometry" />
        </mxCell>
        <mxCell id="QSNl9v5HCUMXxTpH8jXh-92" value="Cloud Workloads Security Operation" style="html=1;shadow=0;dashed=0;align=center;verticalAlign=middle;shape=mxgraph.arrows2.arrow;dy=0;dx=30;notch=30;sketch=1;hachureGap=4;jiggle=2;curveFitting=1;fontFamily=Architects Daughter;fontSource=https%3A%2F%2Ffonts.googleapis.com%2Fcss%3Ffamily%3DArchitects%2BDaughter;fontSize=20;labelBackgroundColor=none;fillColor=#b0e3e6;strokeColor=#0e8088;fontStyle=1" vertex="1" parent="1">
          <mxGeometry x="1120" y="886" width="615.5" height="50" as="geometry" />
        </mxCell>
        <mxCell id="QSNl9v5HCUMXxTpH8jXh-95" value="Sagemaker/Bedrock" style="sketch=0;points=[[0,0,0],[0.25,0,0],[0.5,0,0],[0.75,0,0],[1,0,0],[0,1,0],[0.25,1,0],[0.5,1,0],[0.75,1,0],[1,1,0],[0,0.25,0],[0,0.5,0],[0,0.75,0],[1,0.25,0],[1,0.5,0],[1,0.75,0]];outlineConnect=0;fontColor=#232F3E;fillColor=#01A88D;strokeColor=#ffffff;dashed=0;verticalLabelPosition=bottom;verticalAlign=top;align=center;html=1;fontSize=15;fontStyle=0;aspect=fixed;shape=mxgraph.aws4.resourceIcon;resIcon=mxgraph.aws4.sagemaker;jiggle=2;curveFitting=1;fontFamily=Gloria Hallelujah;fontSource=https%3A%2F%2Ffonts.googleapis.com%2Fcss%3Ffamily%3DGloria%2BHallelujah;" vertex="1" parent="1">
          <mxGeometry x="723" y="311" width="48" height="48" as="geometry" />
        </mxCell>
        <mxCell id="QSNl9v5HCUMXxTpH8jXh-96" value="IAM" style="sketch=0;points=[[0,0,0],[0.25,0,0],[0.5,0,0],[0.75,0,0],[1,0,0],[0,1,0],[0.25,1,0],[0.5,1,0],[0.75,1,0],[1,1,0],[0,0.25,0],[0,0.5,0],[0,0.75,0],[1,0.25,0],[1,0.5,0],[1,0.75,0]];outlineConnect=0;fontColor=#232F3E;fillColor=#DD344C;strokeColor=#ffffff;dashed=0;verticalLabelPosition=bottom;verticalAlign=top;align=center;html=1;fontSize=15;fontStyle=0;aspect=fixed;shape=mxgraph.aws4.resourceIcon;resIcon=mxgraph.aws4.identity_and_access_management;hachureGap=4;jiggle=2;curveFitting=1;fontFamily=Architects Daughter;fontSource=https%3A%2F%2Ffonts.googleapis.com%2Fcss%3Ffamily%3DArchitects%2BDaughter;labelBackgroundColor=default;" vertex="1" parent="1">
          <mxGeometry x="938" y="160" width="50" height="50" as="geometry" />
        </mxCell>
        <mxCell id="QSNl9v5HCUMXxTpH8jXh-97" value="Guard Duty" style="sketch=0;points=[[0,0,0],[0.25,0,0],[0.5,0,0],[0.75,0,0],[1,0,0],[0,1,0],[0.25,1,0],[0.5,1,0],[0.75,1,0],[1,1,0],[0,0.25,0],[0,0.5,0],[0,0.75,0],[1,0.25,0],[1,0.5,0],[1,0.75,0]];outlineConnect=0;fontColor=#232F3E;fillColor=#DD344C;strokeColor=#ffffff;dashed=0;verticalLabelPosition=bottom;verticalAlign=top;align=center;html=1;fontSize=15;fontStyle=0;aspect=fixed;shape=mxgraph.aws4.resourceIcon;resIcon=mxgraph.aws4.guardduty;hachureGap=4;jiggle=2;curveFitting=1;fontFamily=Architects Daughter;fontSource=https%3A%2F%2Ffonts.googleapis.com%2Fcss%3Ffamily%3DArchitects%2BDaughter;labelBackgroundColor=default;" vertex="1" parent="1">
          <mxGeometry x="1006.07" y="160" width="50" height="50" as="geometry" />
        </mxCell>
        <mxCell id="QSNl9v5HCUMXxTpH8jXh-98" value="Security Operation &amp;amp; Automation" style="endArrow=classic;startArrow=classic;html=1;rounded=0;hachureGap=4;strokeColor=default;strokeWidth=2;align=center;verticalAlign=middle;fontFamily=Architects Daughter;fontSource=https%3A%2F%2Ffonts.googleapis.com%2Fcss%3Ffamily%3DArchitects%2BDaughter;fontSize=20;fontColor=default;labelBackgroundColor=default;edgeStyle=orthogonalEdgeStyle;flowAnimation=1;curved=1;" edge="1" parent="1">
          <mxGeometry width="50" height="50" relative="1" as="geometry">
            <mxPoint x="80" y="863" as="sourcePoint" />
            <mxPoint x="1720" y="863" as="targetPoint" />
            <mxPoint as="offset" />
          </mxGeometry>
        </mxCell>
        <mxCell id="QSNl9v5HCUMXxTpH8jXh-99" value="" style="shape=image;imageAspect=0;aspect=fixed;verticalLabelPosition=bottom;verticalAlign=top;sketch=1;hachureGap=4;jiggle=2;curveFitting=1;fontFamily=Architects Daughter;fontSource=https%3A%2F%2Ffonts.googleapis.com%2Fcss%3Ffamily%3DArchitects%2BDaughter;fontSize=20;fontColor=default;labelBackgroundColor=default;image=https://avatars.githubusercontent.com/u/73199731?s=200&amp;v=4;" vertex="1" parent="1">
          <mxGeometry x="520" y="953" width="80" height="80" as="geometry" />
        </mxCell>
        <mxCell id="QSNl9v5HCUMXxTpH8jXh-101" value="" style="shape=image;imageAspect=0;aspect=fixed;verticalLabelPosition=bottom;verticalAlign=top;sketch=1;hachureGap=4;jiggle=2;curveFitting=1;fontFamily=Architects Daughter;fontSource=https%3A%2F%2Ffonts.googleapis.com%2Fcss%3Ffamily%3DArchitects%2BDaughter;fontSize=20;fontColor=default;labelBackgroundColor=default;image=https://lh3.googleusercontent.com/YlwczxRATj_a4sGRLSJi7JzhGsxiYupSzuAu1i94PlJ6CYl71ghwYgeiDiEyDQxD8NRQI62OWXLxpbdz2Qk;" vertex="1" parent="1">
          <mxGeometry x="1380" y="953" width="55.75" height="71" as="geometry" />
        </mxCell>
        <mxCell id="QSNl9v5HCUMXxTpH8jXh-102" value="Prisma Cloud" style="text;html=1;align=center;verticalAlign=middle;whiteSpace=wrap;rounded=0;fontFamily=Architects Daughter;fontSource=https%3A%2F%2Ffonts.googleapis.com%2Fcss%3Ffamily%3DArchitects%2BDaughter;fontSize=20;fontColor=default;labelBackgroundColor=default;" vertex="1" parent="1">
          <mxGeometry x="594" y="978" width="106" height="30" as="geometry" />
        </mxCell>
        <mxCell id="QSNl9v5HCUMXxTpH8jXh-104" value="Cortex" style="text;html=1;align=center;verticalAlign=middle;whiteSpace=wrap;rounded=0;fontFamily=Architects Daughter;fontSource=https%3A%2F%2Ffonts.googleapis.com%2Fcss%3Ffamily%3DArchitects%2BDaughter;fontSize=20;fontColor=default;labelBackgroundColor=default;" vertex="1" parent="1">
          <mxGeometry x="1440.75" y="973.5" width="64.75" height="30" as="geometry" />
        </mxCell>
        <mxCell id="QSNl9v5HCUMXxTpH8jXh-107" value="Cloud Pipeline" style="sketch=0;points=[[0,0,0],[0.25,0,0],[0.5,0,0],[0.75,0,0],[1,0,0],[0,1,0],[0.25,1,0],[0.5,1,0],[0.75,1,0],[1,1,0],[0,0.25,0],[0,0.5,0],[0,0.75,0],[1,0.25,0],[1,0.5,0],[1,0.75,0]];points=[[0,0,0],[0.25,0,0],[0.5,0,0],[0.75,0,0],[1,0,0],[0,1,0],[0.25,1,0],[0.5,1,0],[0.75,1,0],[1,1,0],[0,0.25,0],[0,0.5,0],[0,0.75,0],[1,0.25,0],[1,0.5,0],[1,0.75,0]];outlineConnect=0;fontColor=#232F3E;fillColor=#E7157B;strokeColor=#ffffff;dashed=0;verticalLabelPosition=bottom;verticalAlign=top;align=center;html=1;fontSize=15;fontStyle=0;aspect=fixed;shape=mxgraph.aws4.resourceIcon;resIcon=mxgraph.aws4.cloudformation;hachureGap=4;jiggle=2;curveFitting=1;fontFamily=Architects Daughter;fontSource=https%3A%2F%2Ffonts.googleapis.com%2Fcss%3Ffamily%3DArchitects%2BDaughter;" vertex="1" parent="1">
          <mxGeometry x="180" y="590" width="40" height="40" as="geometry" />
        </mxCell>
        <mxCell id="QSNl9v5HCUMXxTpH8jXh-108" value="" style="group;fontSize=20;" vertex="1" connectable="0" parent="1">
          <mxGeometry x="70" y="886" width="1070" height="50" as="geometry" />
        </mxCell>
        <mxCell id="QSNl9v5HCUMXxTpH8jXh-86" value="Cloud App&lt;div style=&quot;font-size: 20px;&quot;&gt;Development&lt;/div&gt;" style="html=1;shadow=0;dashed=0;align=center;verticalAlign=middle;shape=mxgraph.arrows2.arrow;dy=0;dx=30;notch=30;sketch=1;hachureGap=4;jiggle=2;curveFitting=1;fontFamily=Architects Daughter;fontSource=https%3A%2F%2Ffonts.googleapis.com%2Fcss%3Ffamily%3DArchitects%2BDaughter;fontSize=20;labelBackgroundColor=none;fillColor=#b1ddf0;strokeColor=#10739e;fontStyle=1" vertex="1" parent="QSNl9v5HCUMXxTpH8jXh-108">
          <mxGeometry width="352.9172141918528" height="50" as="geometry" />
        </mxCell>
        <mxCell id="QSNl9v5HCUMXxTpH8jXh-87" value="Cloud App&lt;div style=&quot;font-size: 20px;&quot;&gt;Deployment&lt;/div&gt;" style="html=1;shadow=0;dashed=0;align=center;verticalAlign=middle;shape=mxgraph.arrows2.arrow;dy=0;dx=30;notch=30;sketch=1;hachureGap=4;jiggle=2;curveFitting=1;fontFamily=Architects Daughter;fontSource=https%3A%2F%2Ffonts.googleapis.com%2Fcss%3Ffamily%3DArchitects%2BDaughter;fontSize=20;labelBackgroundColor=none;fillColor=#b1ddf0;strokeColor=#10739e;fontStyle=1" vertex="1" parent="QSNl9v5HCUMXxTpH8jXh-108">
          <mxGeometry x="321.9842312746386" width="352.9172141918528" height="50" as="geometry" />
        </mxCell>
        <mxCell id="QSNl9v5HCUMXxTpH8jXh-88" value="Cloud Workloads&lt;div style=&quot;font-size: 20px;&quot;&gt;Operation&lt;/div&gt;" style="html=1;shadow=0;dashed=0;align=center;verticalAlign=middle;shape=mxgraph.arrows2.arrow;dy=0;dx=30;notch=30;sketch=1;hachureGap=4;jiggle=2;curveFitting=1;fontFamily=Architects Daughter;fontSource=https%3A%2F%2Ffonts.googleapis.com%2Fcss%3Ffamily%3DArchitects%2BDaughter;fontSize=20;labelBackgroundColor=none;fillColor=#b1ddf0;strokeColor=#10739e;fontStyle=1" vertex="1" parent="QSNl9v5HCUMXxTpH8jXh-108">
          <mxGeometry x="647.4835742444152" width="422.51642575558475" height="50" as="geometry" />
        </mxCell>
        <mxCell id="QSNl9v5HCUMXxTpH8jXh-117" style="edgeStyle=orthogonalEdgeStyle;shape=connector;curved=1;rounded=0;hachureGap=4;orthogonalLoop=1;jettySize=auto;html=1;entryX=0.5;entryY=1;entryDx=0;entryDy=0;strokeColor=default;strokeWidth=2;align=center;verticalAlign=middle;fontFamily=Architects Daughter;fontSource=https%3A%2F%2Ffonts.googleapis.com%2Fcss%3Ffamily%3DArchitects%2BDaughter;fontSize=15;fontColor=default;labelBackgroundColor=default;endArrow=classic;flowAnimation=1;" edge="1" parent="1" source="QSNl9v5HCUMXxTpH8jXh-114" target="QSNl9v5HCUMXxTpH8jXh-28">
          <mxGeometry relative="1" as="geometry" />
        </mxCell>
        <mxCell id="QSNl9v5HCUMXxTpH8jXh-114" value="SRE" style="shape=umlActor;verticalLabelPosition=bottom;verticalAlign=top;html=1;outlineConnect=0;fontFamily=Gloria Hallelujah;fontSource=https%3A%2F%2Ffonts.googleapis.com%2Fcss%3Ffamily%3DGloria%2BHallelujah;sketch=1;curveFitting=1;jiggle=2;fontSize=15;" vertex="1" parent="1">
          <mxGeometry x="667.28" y="750" width="30" height="60" as="geometry" />
        </mxCell>
        <mxCell id="QSNl9v5HCUMXxTpH8jXh-115" value="Cloud Engineer" style="shape=umlActor;verticalLabelPosition=bottom;verticalAlign=top;html=1;outlineConnect=0;fontFamily=Gloria Hallelujah;fontSource=https%3A%2F%2Ffonts.googleapis.com%2Fcss%3Ffamily%3DGloria%2BHallelujah;sketch=1;curveFitting=1;jiggle=2;fontSize=15;" vertex="1" parent="1">
          <mxGeometry x="768.71" y="750" width="30" height="60" as="geometry" />
        </mxCell>
        <mxCell id="QSNl9v5HCUMXxTpH8jXh-116" style="edgeStyle=orthogonalEdgeStyle;shape=connector;curved=1;rounded=0;hachureGap=4;orthogonalLoop=1;jettySize=auto;html=1;entryX=0.55;entryY=0.95;entryDx=0;entryDy=0;entryPerimeter=0;strokeColor=default;strokeWidth=2;align=center;verticalAlign=middle;fontFamily=Architects Daughter;fontSource=https%3A%2F%2Ffonts.googleapis.com%2Fcss%3Ffamily%3DArchitects%2BDaughter;fontSize=15;fontColor=default;labelBackgroundColor=default;endArrow=classic;flowAnimation=1;" edge="1" parent="1" source="QSNl9v5HCUMXxTpH8jXh-115" target="QSNl9v5HCUMXxTpH8jXh-23">
          <mxGeometry relative="1" as="geometry" />
        </mxCell>
        <mxCell id="QSNl9v5HCUMXxTpH8jXh-128" value="Network Logs" style="html=1;shadow=0;dashed=0;align=center;verticalAlign=middle;shape=mxgraph.arrows2.arrow;dy=0.1;dx=21.12;notch=17.12;fontFamily=Architects Daughter;fontSource=https%3A%2F%2Ffonts.googleapis.com%2Fcss%3Ffamily%3DArchitects%2BDaughter;fontSize=15;fontColor=#333333;labelBackgroundColor=default;sketch=1;curveFitting=1;jiggle=2;fillColor=#f5f5f5;strokeColor=#666666;" vertex="1" parent="1">
          <mxGeometry x="1109" y="475" width="140" height="30" as="geometry" />
        </mxCell>
        <mxCell id="QSNl9v5HCUMXxTpH8jXh-130" value="Endpoint Logs" style="html=1;shadow=0;dashed=0;align=center;verticalAlign=middle;shape=mxgraph.arrows2.arrow;dy=0.1;dx=21.12;notch=17.12;fontFamily=Architects Daughter;fontSource=https%3A%2F%2Ffonts.googleapis.com%2Fcss%3Ffamily%3DArchitects%2BDaughter;fontSize=15;fontColor=#333333;labelBackgroundColor=default;sketch=1;curveFitting=1;jiggle=2;fillColor=#f5f5f5;strokeColor=#666666;" vertex="1" parent="1">
          <mxGeometry x="1109" y="515" width="140" height="30" as="geometry" />
        </mxCell>
        <mxCell id="QSNl9v5HCUMXxTpH8jXh-131" value="Audit Logs" style="html=1;shadow=0;dashed=0;align=center;verticalAlign=middle;shape=mxgraph.arrows2.arrow;dy=0.1;dx=21.12;notch=17.12;fontFamily=Architects Daughter;fontSource=https%3A%2F%2Ffonts.googleapis.com%2Fcss%3Ffamily%3DArchitects%2BDaughter;fontSize=15;fontColor=#333333;labelBackgroundColor=default;sketch=1;curveFitting=1;jiggle=2;fillColor=#f5f5f5;strokeColor=#666666;" vertex="1" parent="1">
          <mxGeometry x="1109" y="440" width="140" height="30" as="geometry" />
        </mxCell>
        <mxCell id="QSNl9v5HCUMXxTpH8jXh-132" value=".Log" style="whiteSpace=wrap;html=1;shape=mxgraph.basic.document;fontFamily=Architects Daughter;fontSource=https%3A%2F%2Ffonts.googleapis.com%2Fcss%3Ffamily%3DArchitects%2BDaughter;fontSize=15;fontColor=default;labelBackgroundColor=default;shadow=0;sketch=1;curveFitting=1;jiggle=2;" vertex="1" parent="1">
          <mxGeometry x="1154" y="379" width="50" height="50" as="geometry" />
        </mxCell>
        <mxCell id="QSNl9v5HCUMXxTpH8jXh-159" value="IOE" style="rounded=1;whiteSpace=wrap;html=1;fontFamily=Architects Daughter;fontSource=https%3A%2F%2Ffonts.googleapis.com%2Fcss%3Ffamily%3DArchitects%2BDaughter;fontSize=15;fontColor=default;labelBackgroundColor=default;sketch=1;curveFitting=1;jiggle=2;fontStyle=1" vertex="1" parent="1">
          <mxGeometry x="1510" y="464.25" width="60" height="25.75" as="geometry" />
        </mxCell>
        <mxCell id="QSNl9v5HCUMXxTpH8jXh-160" value="IOE" style="rounded=1;whiteSpace=wrap;html=1;fontFamily=Architects Daughter;fontSource=https%3A%2F%2Ffonts.googleapis.com%2Fcss%3Ffamily%3DArchitects%2BDaughter;fontSize=15;labelBackgroundColor=none;sketch=1;curveFitting=1;jiggle=2;fontStyle=1;fillColor=#f8cecc;gradientColor=#ea6b66;strokeColor=#b85450;" vertex="1" parent="1">
          <mxGeometry x="1520" y="474.25" width="60" height="25.75" as="geometry" />
        </mxCell>
        <mxCell id="QSNl9v5HCUMXxTpH8jXh-166" value="IOA" style="rounded=1;whiteSpace=wrap;html=1;fontFamily=Architects Daughter;fontSource=https%3A%2F%2Ffonts.googleapis.com%2Fcss%3Ffamily%3DArchitects%2BDaughter;fontSize=15;fontColor=default;labelBackgroundColor=default;sketch=1;curveFitting=1;jiggle=2;fontStyle=1" vertex="1" parent="1">
          <mxGeometry x="1480" y="590" width="60" height="25.75" as="geometry" />
        </mxCell>
        <mxCell id="QSNl9v5HCUMXxTpH8jXh-167" value="IOA" style="rounded=1;whiteSpace=wrap;html=1;fontFamily=Architects Daughter;fontSource=https%3A%2F%2Ffonts.googleapis.com%2Fcss%3Ffamily%3DArchitects%2BDaughter;fontSize=15;fontColor=default;labelBackgroundColor=default;sketch=1;curveFitting=1;jiggle=2;fontStyle=1" vertex="1" parent="1">
          <mxGeometry x="1490" y="600" width="60" height="25.75" as="geometry" />
        </mxCell>
        <mxCell id="QSNl9v5HCUMXxTpH8jXh-169" value="events" style="whiteSpace=wrap;html=1;shape=mxgraph.basic.document;fontFamily=Architects Daughter;fontSource=https%3A%2F%2Ffonts.googleapis.com%2Fcss%3Ffamily%3DArchitects%2BDaughter;fontSize=15;fontColor=default;labelBackgroundColor=default;shadow=0;sketch=1;curveFitting=1;jiggle=2;" vertex="1" parent="1">
          <mxGeometry x="1179" y="340" width="50" height="50" as="geometry" />
        </mxCell>
        <mxCell id="QSNl9v5HCUMXxTpH8jXh-55" value="Security Operation Center (SOC)" style="rounded=0;whiteSpace=wrap;html=1;sketch=1;jiggle=2;curveFitting=1;strokeColor=#82b366;align=center;verticalAlign=top;fontFamily=Gloria Hallelujah;fontSource=https%3A%2F%2Ffonts.googleapis.com%2Fcss%3Ffamily%3DGloria%2BHallelujah;fontSize=18;fillColor=#d5e8d4;fontStyle=1" vertex="1" parent="1">
          <mxGeometry x="1250" y="390" width="370" height="300" as="geometry" />
        </mxCell>
        <mxCell id="QSNl9v5HCUMXxTpH8jXh-57" value="Proactive Prevention" style="rounded=0;whiteSpace=wrap;html=1;sketch=1;hachureGap=4;jiggle=2;curveFitting=1;fontFamily=Architects Daughter;fontSource=https%3A%2F%2Ffonts.googleapis.com%2Fcss%3Ffamily%3DArchitects%2BDaughter;verticalAlign=bottom;fontSize=15;" vertex="1" parent="1">
          <mxGeometry x="1264.8804347826087" y="568" width="158.05434782608697" height="100" as="geometry" />
        </mxCell>
        <mxCell id="QSNl9v5HCUMXxTpH8jXh-58" value="Reactive Protection" style="rounded=0;whiteSpace=wrap;html=1;sketch=1;hachureGap=4;jiggle=2;curveFitting=1;fontFamily=Architects Daughter;fontSource=https%3A%2F%2Ffonts.googleapis.com%2Fcss%3Ffamily%3DArchitects%2BDaughter;verticalAlign=bottom;fontSize=15;" vertex="1" parent="1">
          <mxGeometry x="1446.6630434782608" y="565" width="158.05434782608697" height="103" as="geometry" />
        </mxCell>
        <mxCell id="QSNl9v5HCUMXxTpH8jXh-111" value="Unified Security Data Platform" style="rounded=0;whiteSpace=wrap;html=1;sketch=1;hachureGap=4;jiggle=2;curveFitting=1;fontFamily=Architects Daughter;fontSource=https%3A%2F%2Ffonts.googleapis.com%2Fcss%3Ffamily%3DArchitects%2BDaughter;verticalAlign=bottom;fontSize=15;" vertex="1" parent="1">
          <mxGeometry x="1264.8804347826087" y="439" width="339.0326086956522" height="100" as="geometry" />
        </mxCell>
        <mxCell id="QSNl9v5HCUMXxTpH8jXh-149" style="edgeStyle=orthogonalEdgeStyle;shape=connector;curved=1;rounded=0;hachureGap=4;orthogonalLoop=1;jettySize=auto;html=1;entryX=0;entryY=0.5;entryDx=0;entryDy=0;strokeColor=default;strokeWidth=2;align=center;verticalAlign=middle;fontFamily=Architects Daughter;fontSource=https%3A%2F%2Ffonts.googleapis.com%2Fcss%3Ffamily%3DArchitects%2BDaughter;fontSize=15;fontColor=default;labelBackgroundColor=default;endArrow=classic;flowAnimation=1;" edge="1" parent="1" source="QSNl9v5HCUMXxTpH8jXh-134" target="QSNl9v5HCUMXxTpH8jXh-148">
          <mxGeometry relative="1" as="geometry" />
        </mxCell>
        <mxCell id="QSNl9v5HCUMXxTpH8jXh-134" value="Data" style="shape=cylinder3;whiteSpace=wrap;html=1;boundedLbl=1;backgroundOutline=1;size=9.705882352941273;fontFamily=Architects Daughter;fontSource=https%3A%2F%2Ffonts.googleapis.com%2Fcss%3Ffamily%3DArchitects%2BDaughter;fontSize=15;fontColor=default;labelBackgroundColor=default;sketch=1;curveFitting=1;jiggle=2;" vertex="1" parent="1">
          <mxGeometry x="1290" y="450" width="60" height="49" as="geometry" />
        </mxCell>
        <mxCell id="QSNl9v5HCUMXxTpH8jXh-161" style="edgeStyle=orthogonalEdgeStyle;shape=connector;curved=1;rounded=0;hachureGap=4;orthogonalLoop=1;jettySize=auto;html=1;exitX=1;exitY=0.5;exitDx=0;exitDy=0;entryX=0;entryY=0.75;entryDx=0;entryDy=0;strokeColor=default;strokeWidth=2;align=center;verticalAlign=middle;fontFamily=Architects Daughter;fontSource=https%3A%2F%2Ffonts.googleapis.com%2Fcss%3Ffamily%3DArchitects%2BDaughter;fontSize=15;fontColor=default;labelBackgroundColor=default;endArrow=classic;flowAnimation=1;" edge="1" parent="1" source="QSNl9v5HCUMXxTpH8jXh-148" target="QSNl9v5HCUMXxTpH8jXh-147">
          <mxGeometry relative="1" as="geometry" />
        </mxCell>
        <mxCell id="QSNl9v5HCUMXxTpH8jXh-148" value="AI" style="shape=process;whiteSpace=wrap;html=1;backgroundOutline=1;fontFamily=Architects Daughter;fontSource=https%3A%2F%2Ffonts.googleapis.com%2Fcss%3Ffamily%3DArchitects%2BDaughter;fontSize=15;fontColor=default;labelBackgroundColor=default;sketch=1;curveFitting=1;jiggle=2;" vertex="1" parent="1">
          <mxGeometry x="1399.4" y="454.25" width="70" height="40.5" as="geometry" />
        </mxCell>
        <mxCell id="QSNl9v5HCUMXxTpH8jXh-147" value="IOE" style="rounded=1;whiteSpace=wrap;html=1;fontFamily=Architects Daughter;fontSource=https%3A%2F%2Ffonts.googleapis.com%2Fcss%3Ffamily%3DArchitects%2BDaughter;fontSize=15;fontColor=default;labelBackgroundColor=default;sketch=1;curveFitting=1;jiggle=2;fontStyle=1" vertex="1" parent="1">
          <mxGeometry x="1500" y="454.25" width="60" height="25.75" as="geometry" />
        </mxCell>
        <mxCell id="QSNl9v5HCUMXxTpH8jXh-162" value="IOC" style="rounded=1;whiteSpace=wrap;html=1;fontFamily=Architects Daughter;fontSource=https%3A%2F%2Ffonts.googleapis.com%2Fcss%3Ffamily%3DArchitects%2BDaughter;fontSize=15;fontColor=default;labelBackgroundColor=default;sketch=1;curveFitting=1;jiggle=2;fontStyle=1" vertex="1" parent="1">
          <mxGeometry x="1303.91" y="580" width="60" height="25.75" as="geometry" />
        </mxCell>
        <mxCell id="QSNl9v5HCUMXxTpH8jXh-163" value="IOC" style="rounded=1;whiteSpace=wrap;html=1;fontFamily=Architects Daughter;fontSource=https%3A%2F%2Ffonts.googleapis.com%2Fcss%3Ffamily%3DArchitects%2BDaughter;fontSize=15;fontColor=default;labelBackgroundColor=default;sketch=1;curveFitting=1;jiggle=2;fontStyle=1" vertex="1" parent="1">
          <mxGeometry x="1313.91" y="590" width="60" height="25.75" as="geometry" />
        </mxCell>
        <mxCell id="QSNl9v5HCUMXxTpH8jXh-164" value="IOC" style="rounded=1;whiteSpace=wrap;html=1;fontFamily=Architects Daughter;fontSource=https%3A%2F%2Ffonts.googleapis.com%2Fcss%3Ffamily%3DArchitects%2BDaughter;fontSize=15;labelBackgroundColor=none;sketch=1;curveFitting=1;jiggle=2;fontStyle=1;fillColor=#d5e8d4;gradientColor=#97d077;strokeColor=#82b366;fontColor=default;" vertex="1" parent="1">
          <mxGeometry x="1323.91" y="600" width="60" height="25.75" as="geometry" />
        </mxCell>
        <mxCell id="QSNl9v5HCUMXxTpH8jXh-165" value="IOA" style="rounded=1;whiteSpace=wrap;html=1;fontFamily=Architects Daughter;fontSource=https%3A%2F%2Ffonts.googleapis.com%2Fcss%3Ffamily%3DArchitects%2BDaughter;fontSize=15;fontColor=default;labelBackgroundColor=default;sketch=1;curveFitting=1;jiggle=2;fontStyle=1" vertex="1" parent="1">
          <mxGeometry x="1470" y="580" width="60" height="25.75" as="geometry" />
        </mxCell>
        <mxCell id="QSNl9v5HCUMXxTpH8jXh-168" value="" style="shape=image;verticalLabelPosition=bottom;labelBackgroundColor=default;verticalAlign=top;aspect=fixed;imageAspect=0;image=https://cdn-icons-png.flaticon.com/512/10655/10655641.png;" vertex="1" parent="1">
          <mxGeometry x="1271.91" y="508" width="42" height="42" as="geometry" />
        </mxCell>
        <mxCell id="QSNl9v5HCUMXxTpH8jXh-172" value="" style="shape=image;verticalLabelPosition=bottom;labelBackgroundColor=default;verticalAlign=top;aspect=fixed;imageAspect=0;image=https://cdn-icons-png.flaticon.com/512/2344/2344282.png;" vertex="1" parent="1">
          <mxGeometry x="1399.4" y="550" width="42" height="42" as="geometry" />
        </mxCell>
        <mxCell id="QSNl9v5HCUMXxTpH8jXh-173" value="" style="shape=image;verticalLabelPosition=bottom;labelBackgroundColor=default;verticalAlign=top;aspect=fixed;imageAspect=0;image=https://cdn-icons-png.flaticon.com/512/2344/2344282.png;" vertex="1" parent="1">
          <mxGeometry x="1578" y="550" width="42" height="42" as="geometry" />
        </mxCell>
        <mxCell id="Ve2g21J112VVVvBCDbT_-2" value="IOE" style="rounded=1;whiteSpace=wrap;html=1;fontFamily=Architects Daughter;fontSource=https%3A%2F%2Ffonts.googleapis.com%2Fcss%3Ffamily%3DArchitects%2BDaughter;fontSize=15;fontColor=default;labelBackgroundColor=default;sketch=1;curveFitting=1;jiggle=2;fontStyle=1" vertex="1" parent="1">
          <mxGeometry x="1510" y="464.25" width="60" height="25.75" as="geometry" />
        </mxCell>
        <mxCell id="Ve2g21J112VVVvBCDbT_-3" value="IOE" style="rounded=1;whiteSpace=wrap;html=1;fontFamily=Architects Daughter;fontSource=https%3A%2F%2Ffonts.googleapis.com%2Fcss%3Ffamily%3DArchitects%2BDaughter;fontSize=15;labelBackgroundColor=none;sketch=1;curveFitting=1;jiggle=2;fontStyle=1;fillColor=#d5e8d4;gradientColor=#97d077;strokeColor=#82b366;fontColor=default;" vertex="1" parent="1">
          <mxGeometry x="1520" y="474.25" width="60" height="25.75" as="geometry" />
        </mxCell>
        <mxCell id="Ve2g21J112VVVvBCDbT_-4" value="IOA" style="rounded=1;whiteSpace=wrap;html=1;fontFamily=Architects Daughter;fontSource=https%3A%2F%2Ffonts.googleapis.com%2Fcss%3Ffamily%3DArchitects%2BDaughter;fontSize=15;fontColor=default;labelBackgroundColor=default;sketch=1;curveFitting=1;jiggle=2;fontStyle=1" vertex="1" parent="1">
          <mxGeometry x="1480" y="590" width="60" height="25.75" as="geometry" />
        </mxCell>
        <mxCell id="Ve2g21J112VVVvBCDbT_-5" value="IOA" style="rounded=1;whiteSpace=wrap;html=1;fontFamily=Architects Daughter;fontSource=https%3A%2F%2Ffonts.googleapis.com%2Fcss%3Ffamily%3DArchitects%2BDaughter;fontSize=15;labelBackgroundColor=none;sketch=1;curveFitting=1;jiggle=2;fontStyle=1;fillColor=#d5e8d4;gradientColor=#97d077;strokeColor=#82b366;fontColor=default;" vertex="1" parent="1">
          <mxGeometry x="1490" y="600" width="60" height="25.75" as="geometry" />
        </mxCell>
        <mxCell id="Ve2g21J112VVVvBCDbT_-6" value="" style="edgeStyle=orthogonalEdgeStyle;curved=1;rounded=0;hachureGap=4;orthogonalLoop=1;jettySize=auto;html=1;entryX=0.75;entryY=0;entryDx=0;entryDy=0;strokeColor=#82b366;strokeWidth=4;align=center;verticalAlign=middle;fontFamily=Architects Daughter;fontSource=https%3A%2F%2Ffonts.googleapis.com%2Fcss%3Ffamily%3DArchitects%2BDaughter;fontSize=15;fontColor=default;labelBackgroundColor=default;endArrow=classic;flowAnimation=0;dashed=1;dashPattern=1 1;shadow=1;sketch=1;curveFitting=1;jiggle=2;shadowColor=#FFCCCC;shadowOpacity=25;shadowOffsetX=2;shadowBlur=10;shadowOffsetY=3;exitX=0;exitY=0.75;exitDx=0;exitDy=0;fillColor=#d5e8d4;gradientColor=#97d077;" edge="1" parent="1" source="Ve2g21J112VVVvBCDbT_-3" target="QSNl9v5HCUMXxTpH8jXh-164">
          <mxGeometry x="0.3164" y="-9" relative="1" as="geometry">
            <mxPoint as="offset" />
            <mxPoint x="1601" y="753" as="sourcePoint" />
            <mxPoint x="1419" y="680" as="targetPoint" />
          </mxGeometry>
        </mxCell>
        <mxCell id="Ve2g21J112VVVvBCDbT_-7" value="" style="edgeStyle=orthogonalEdgeStyle;curved=1;rounded=0;hachureGap=4;orthogonalLoop=1;jettySize=auto;html=1;entryX=0;entryY=0.75;entryDx=0;entryDy=0;strokeColor=#82b366;strokeWidth=4;align=center;verticalAlign=middle;fontFamily=Architects Daughter;fontSource=https%3A%2F%2Ffonts.googleapis.com%2Fcss%3Ffamily%3DArchitects%2BDaughter;fontSize=15;fontColor=default;labelBackgroundColor=default;endArrow=classic;flowAnimation=0;dashed=1;dashPattern=1 1;shadow=1;sketch=1;curveFitting=1;jiggle=2;shadowColor=#FFCCCC;shadowOpacity=25;shadowOffsetX=2;shadowBlur=10;shadowOffsetY=3;exitX=1;exitY=0.75;exitDx=0;exitDy=0;fillColor=#d5e8d4;gradientColor=#97d077;" edge="1" parent="1" source="QSNl9v5HCUMXxTpH8jXh-164" target="Ve2g21J112VVVvBCDbT_-5">
          <mxGeometry x="0.3151" y="-9" relative="1" as="geometry">
            <mxPoint as="offset" />
            <mxPoint x="1530" y="504" as="sourcePoint" />
            <mxPoint x="1379" y="610" as="targetPoint" />
          </mxGeometry>
        </mxCell>
      </root>
    </mxGraphModel>
  </diagram>
</mxfile>
